<svg width="44" height="43" viewBox="0 0 44 43" fill="none" xmlns="http://www.w3.org/2000/svg">
<rect x="1.0375" y="0.5375" width="41.925" height="41.925" rx="20.9625" fill="white" stroke="#D9D9D9" stroke-width="1.075"/>
<mask id="mask0_15_1353" style="mask-type:alpha" maskUnits="userSpaceOnUse" x="9" y="8" width="26" height="27">
<rect x="9.1001" y="8.59998" width="25.8" height="25.8" fill="#D9D9D9"/>
</mask>
<g mask="url(#mask0_15_1353)">
<path d="M27.375 19.35C26.7837 19.35 26.2776 19.144 25.8565 18.7319C25.4355 18.3198 25.225 17.8092 25.225 17.2V12.9C25.225 12.2908 25.4355 11.7802 25.8565 11.3681C26.2776 10.956 26.7837 10.75 27.375 10.75C27.9841 10.75 28.4947 10.956 28.9068 11.3681C29.3189 11.7802 29.525 12.2908 29.525 12.9V17.2C29.525 17.8092 29.3189 18.3198 28.9068 18.7319C28.4947 19.144 27.9841 19.35 27.375 19.35ZM14.475 32.25C13.8837 32.25 13.3776 32.0395 12.9565 31.6184C12.5355 31.1974 12.325 30.6913 12.325 30.1V12.9C12.325 12.3088 12.5355 11.8026 12.9565 11.3816C13.3776 10.9605 13.8837 10.75 14.475 10.75H23.075V12.9H14.475V30.1H26.3V27.95H28.4499V30.1C28.4499 30.6913 28.2394 31.1974 27.8184 31.6184C27.3973 32.0395 26.8912 32.25 26.3 32.25H14.475ZM16.625 27.95V25.8H24.15V27.95H16.625ZM16.625 24.725V22.575H22V24.725H16.625ZM28.4499 25.8H26.3V23.005C24.9204 22.7542 23.7692 22.0868 22.8465 21.0028C21.9238 19.9189 21.4625 18.6513 21.4625 17.2H23.6125C23.6125 18.2392 23.9797 19.126 24.7143 19.8606C25.4489 20.5952 26.3358 20.9625 27.375 20.9625C28.432 20.9625 29.3234 20.5952 30.049 19.8606C30.7746 19.126 31.1374 18.2392 31.1374 17.2H33.2874C33.2874 18.6513 32.8306 19.9189 31.9168 21.0028C31.0031 22.0868 29.8475 22.7542 28.4499 23.005V25.8Z" fill="#B8B7B7"/>
</g>
</svg>
