<svg width="44" height="43" viewBox="0 0 44 43" fill="none" xmlns="http://www.w3.org/2000/svg">
<rect x="1.0375" y="0.5375" width="41.925" height="41.925" rx="20.9625" fill="white" stroke="#D9D9D9" stroke-width="1.075"/>
<mask id="mask0_15_1347" style="mask-type:alpha" maskUnits="userSpaceOnUse" x="9" y="8" width="26" height="27">
<rect x="9.1001" y="8.59998" width="25.8" height="25.8" fill="#D9D9D9"/>
</mask>
<g mask="url(#mask0_15_1347)">
<path d="M13.4 32.25C12.8088 32.25 12.3026 32.0395 11.8816 31.6184C11.4605 31.1974 11.25 30.6913 11.25 30.1V12.9C11.25 12.3088 11.4605 11.8026 11.8816 11.3816C12.3026 10.9605 12.8088 10.75 13.4 10.75H22.1613L20.0113 12.9H13.4V30.1H25.225V27.95H27.375V30.1C27.375 30.6913 27.1645 31.1974 26.7434 31.6184C26.3224 32.0395 25.8163 32.25 25.225 32.25H13.4ZM15.55 27.95V25.8H23.075V27.95H15.55ZM15.55 24.725V22.575H20.925V24.725H15.55ZM25.225 24.725L20.925 20.425H17.7V15.05H20.925L25.225 10.75V24.725ZM27.375 21.4462V14.0288C28.02 14.405 28.5396 14.9156 28.9338 15.5606C29.3279 16.2056 29.525 16.9313 29.525 17.7375C29.525 18.5438 29.3279 19.2694 28.9338 19.9144C28.5396 20.5594 28.02 21.07 27.375 21.4462ZM27.375 26.0688V23.8113C28.6292 23.3633 29.6594 22.5884 30.4656 21.4866C31.2719 20.3847 31.675 19.135 31.675 17.7375C31.675 16.34 31.2719 15.0903 30.4656 13.9884C29.6594 12.8866 28.6292 12.1117 27.375 11.6638V9.40625C29.2383 9.89 30.7792 10.8978 31.9975 12.4297C33.2158 13.9616 33.825 15.7308 33.825 17.7375C33.825 19.7442 33.2158 21.5134 31.9975 23.0453C30.7792 24.5772 29.2383 25.585 27.375 26.0688Z" fill="#B8B7B7"/>
</g>
</svg>
